<svg id="visual" viewBox="0 0 3200 300" width="3200" height="300" xmlns="http://www.w3.org/2000/svg" xmlns:xlink="http://www.w3.org/1999/xlink" version="1.1"><rect x="0" y="0" width="3200" height="300" fill="#000000"></rect><path d="M0 43L25.3 51.5C50.7 60 101.3 77 152.2 85.2C203 93.3 254 92.7 304.8 95.5C355.7 98.3 406.3 104.7 457.2 98.3C508 92 559 73 609.8 68.3C660.7 63.7 711.3 73.3 762 81.8C812.7 90.3 863.3 97.7 914.2 101.3C965 105 1016 105 1066.8 98.2C1117.7 91.3 1168.3 77.7 1219 77.2C1269.7 76.7 1320.3 89.3 1371.2 91.7C1422 94 1473 86 1523.8 75.8C1574.7 65.7 1625.3 53.3 1676.2 58.7C1727 64 1778 87 1828.8 95.8C1879.7 104.7 1930.3 99.3 1981 99C2031.7 98.7 2082.3 103.3 2133.2 96.8C2184 90.3 2235 72.7 2285.8 63.3C2336.7 54 2387.3 53 2438 51.2C2488.7 49.3 2539.3 46.7 2590.2 55.2C2641 63.7 2692 83.3 2742.8 86.3C2793.7 89.3 2844.3 75.7 2895.2 70.7C2946 65.7 2997 69.3 3047.8 67.2C3098.7 65 3149.3 57 3174.7 53L3200 49L3200 0L3174.7 0C3149.3 0 3098.7 0 3047.8 0C2997 0 2946 0 2895.2 0C2844.3 0 2793.7 0 2742.8 0C2692 0 2641 0 2590.2 0C2539.3 0 2488.7 0 2438 0C2387.3 0 2336.7 0 2285.8 0C2235 0 2184 0 2133.2 0C2082.3 0 2031.7 0 1981 0C1930.3 0 1879.7 0 1828.8 0C1778 0 1727 0 1676.2 0C1625.3 0 1574.7 0 1523.8 0C1473 0 1422 0 1371.2 0C1320.3 0 1269.7 0 1219 0C1168.3 0 1117.7 0 1066.8 0C1016 0 965 0 914.2 0C863.3 0 812.7 0 762 0C711.3 0 660.7 0 609.8 0C559 0 508 0 457.2 0C406.3 0 355.7 0 304.8 0C254 0 203 0 152.2 0C101.3 0 50.7 0 25.3 0L0 0Z" fill="#000c7d"></path><path d="M0 49L25.3 47.2C50.7 45.3 101.3 41.7 152.2 40C203 38.3 254 38.7 304.8 43.8C355.7 49 406.3 59 457.2 62.2C508 65.3 559 61.7 609.8 64.5C660.7 67.3 711.3 76.7 762 81.2C812.7 85.7 863.3 85.3 914.2 76.5C965 67.7 1016 50.3 1066.8 46.8C1117.7 43.3 1168.3 53.7 1219 64C1269.7 74.3 1320.3 84.7 1371.2 80.2C1422 75.7 1473 56.3 1523.8 56.5C1574.7 56.7 1625.3 76.3 1676.2 85.3C1727 94.3 1778 92.7 1828.8 89.7C1879.7 86.7 1930.3 82.3 1981 76.5C2031.7 70.7 2082.3 63.3 2133.2 60.5C2184 57.7 2235 59.3 2285.8 60.3C2336.7 61.3 2387.3 61.7 2438 59.5C2488.7 57.3 2539.3 52.7 2590.2 54.2C2641 55.7 2692 63.3 2742.8 71.3C2793.7 79.3 2844.3 87.7 2895.2 85.8C2946 84 2997 72 3047.8 66.8C3098.7 61.7 3149.3 63.3 3174.7 64.2L3200 65L3200 0L3174.7 0C3149.3 0 3098.7 0 3047.8 0C2997 0 2946 0 2895.2 0C2844.3 0 2793.7 0 2742.8 0C2692 0 2641 0 2590.2 0C2539.3 0 2488.7 0 2438 0C2387.3 0 2336.7 0 2285.8 0C2235 0 2184 0 2133.2 0C2082.3 0 2031.7 0 1981 0C1930.3 0 1879.7 0 1828.8 0C1778 0 1727 0 1676.2 0C1625.3 0 1574.7 0 1523.8 0C1473 0 1422 0 1371.2 0C1320.3 0 1269.7 0 1219 0C1168.3 0 1117.7 0 1066.8 0C1016 0 965 0 914.2 0C863.3 0 812.7 0 762 0C711.3 0 660.7 0 609.8 0C559 0 508 0 457.2 0C406.3 0 355.7 0 304.8 0C254 0 203 0 152.2 0C101.3 0 50.7 0 25.3 0L0 0Z" fill="#00349c"></path><path d="M0 54L25.3 50.8C50.7 47.7 101.3 41.3 152.2 44.2C203 47 254 59 304.8 63C355.7 67 406.3 63 457.2 64C508 65 559 71 609.8 72.7C660.7 74.3 711.3 71.7 762 66.5C812.7 61.3 863.3 53.7 914.2 53C965 52.3 1016 58.7 1066.8 55.5C1117.7 52.3 1168.3 39.7 1219 36.3C1269.7 33 1320.3 39 1371.2 44C1422 49 1473 53 1523.8 50.8C1574.7 48.7 1625.3 40.3 1676.2 41.5C1727 42.7 1778 53.3 1828.8 53.2C1879.7 53 1930.3 42 1981 37.3C2031.7 32.7 2082.3 34.3 2133.2 38.8C2184 43.3 2235 50.7 2285.8 51.7C2336.7 52.7 2387.3 47.3 2438 42.7C2488.7 38 2539.3 34 2590.2 35.2C2641 36.3 2692 42.7 2742.8 50.5C2793.7 58.3 2844.3 67.7 2895.2 68.5C2946 69.3 2997 61.7 3047.8 59.7C3098.7 57.7 3149.3 61.3 3174.7 63.2L3200 65L3200 0L3174.7 0C3149.3 0 3098.7 0 3047.8 0C2997 0 2946 0 2895.2 0C2844.3 0 2793.7 0 2742.8 0C2692 0 2641 0 2590.2 0C2539.3 0 2488.7 0 2438 0C2387.3 0 2336.7 0 2285.8 0C2235 0 2184 0 2133.2 0C2082.3 0 2031.7 0 1981 0C1930.3 0 1879.7 0 1828.8 0C1778 0 1727 0 1676.2 0C1625.3 0 1574.7 0 1523.8 0C1473 0 1422 0 1371.2 0C1320.3 0 1269.7 0 1219 0C1168.3 0 1117.7 0 1066.8 0C1016 0 965 0 914.2 0C863.3 0 812.7 0 762 0C711.3 0 660.7 0 609.8 0C559 0 508 0 457.2 0C406.3 0 355.7 0 304.8 0C254 0 203 0 152.2 0C101.3 0 50.7 0 25.3 0L0 0Z" fill="#0056b7"></path><path d="M0 47L25.3 45.5C50.7 44 101.3 41 152.2 42.5C203 44 254 50 304.8 47.3C355.7 44.7 406.3 33.3 457.2 35C508 36.7 559 51.3 609.8 51C660.7 50.7 711.3 35.3 762 30.3C812.7 25.3 863.3 30.7 914.2 38C965 45.3 1016 54.7 1066.8 59.2C1117.7 63.7 1168.3 63.3 1219 61.2C1269.7 59 1320.3 55 1371.2 54.5C1422 54 1473 57 1523.8 56.2C1574.7 55.3 1625.3 50.7 1676.2 47.7C1727 44.7 1778 43.3 1828.8 43C1879.7 42.7 1930.3 43.3 1981 43.7C2031.7 44 2082.3 44 2133.2 42.5C2184 41 2235 38 2285.8 36C2336.7 34 2387.3 33 2438 35.7C2488.7 38.3 2539.3 44.7 2590.2 47.2C2641 49.7 2692 48.3 2742.8 43.7C2793.7 39 2844.3 31 2895.2 29.3C2946 27.7 2997 32.3 3047.8 38.7C3098.7 45 3149.3 53 3174.7 57L3200 61L3200 0L3174.7 0C3149.3 0 3098.7 0 3047.8 0C2997 0 2946 0 2895.2 0C2844.3 0 2793.7 0 2742.8 0C2692 0 2641 0 2590.2 0C2539.3 0 2488.7 0 2438 0C2387.3 0 2336.7 0 2285.8 0C2235 0 2184 0 2133.2 0C2082.3 0 2031.7 0 1981 0C1930.3 0 1879.7 0 1828.8 0C1778 0 1727 0 1676.2 0C1625.3 0 1574.7 0 1523.8 0C1473 0 1422 0 1371.2 0C1320.3 0 1269.7 0 1219 0C1168.3 0 1117.7 0 1066.8 0C1016 0 965 0 914.2 0C863.3 0 812.7 0 762 0C711.3 0 660.7 0 609.8 0C559 0 508 0 457.2 0C406.3 0 355.7 0 304.8 0C254 0 203 0 152.2 0C101.3 0 50.7 0 25.3 0L0 0Z" fill="#0078ce"></path><path d="M0 48L25.3 43.5C50.7 39 101.3 30 152.2 25.8C203 21.7 254 22.3 304.8 27.2C355.7 32 406.3 41 457.2 44.3C508 47.7 559 45.3 609.8 42.8C660.7 40.3 711.3 37.7 762 39.5C812.7 41.3 863.3 47.7 914.2 48.3C965 49 1016 44 1066.8 41.3C1117.7 38.7 1168.3 38.3 1219 37.8C1269.7 37.3 1320.3 36.7 1371.2 35.7C1422 34.7 1473 33.3 1523.8 30.5C1574.7 27.7 1625.3 23.3 1676.2 24.5C1727 25.7 1778 32.3 1828.8 31.5C1879.7 30.7 1930.3 22.3 1981 19.5C2031.7 16.7 2082.3 19.3 2133.2 19.5C2184 19.7 2235 17.3 2285.8 22.3C2336.7 27.3 2387.3 39.7 2438 43.2C2488.7 46.7 2539.3 41.3 2590.2 38.8C2641 36.3 2692 36.7 2742.8 35.3C2793.7 34 2844.3 31 2895.2 31C2946 31 2997 34 3047.8 31.8C3098.7 29.7 3149.3 22.3 3174.7 18.7L3200 15L3200 0L3174.7 0C3149.3 0 3098.7 0 3047.8 0C2997 0 2946 0 2895.2 0C2844.3 0 2793.7 0 2742.8 0C2692 0 2641 0 2590.2 0C2539.3 0 2488.7 0 2438 0C2387.3 0 2336.7 0 2285.8 0C2235 0 2184 0 2133.2 0C2082.3 0 2031.7 0 1981 0C1930.3 0 1879.7 0 1828.8 0C1778 0 1727 0 1676.2 0C1625.3 0 1574.7 0 1523.8 0C1473 0 1422 0 1371.2 0C1320.3 0 1269.7 0 1219 0C1168.3 0 1117.7 0 1066.8 0C1016 0 965 0 914.2 0C863.3 0 812.7 0 762 0C711.3 0 660.7 0 609.8 0C559 0 508 0 457.2 0C406.3 0 355.7 0 304.8 0C254 0 203 0 152.2 0C101.3 0 50.7 0 25.3 0L0 0Z" fill="#0099e2"></path><path d="M0 25L25.3 26.3C50.7 27.7 101.3 30.3 152.2 33C203 35.7 254 38.3 304.8 36.3C355.7 34.3 406.3 27.7 457.2 23C508 18.3 559 15.7 609.8 17.5C660.7 19.3 711.3 25.7 762 30.2C812.7 34.7 863.3 37.3 914.2 36.7C965 36 1016 32 1066.8 32.2C1117.7 32.3 1168.3 36.7 1219 33.2C1269.7 29.7 1320.3 18.3 1371.2 15.3C1422 12.3 1473 17.7 1523.8 23.3C1574.7 29 1625.3 35 1676.2 35.7C1727 36.3 1778 31.7 1828.8 30C1879.7 28.3 1930.3 29.7 1981 27.2C2031.7 24.7 2082.3 18.3 2133.2 17.7C2184 17 2235 22 2285.8 25.5C2336.7 29 2387.3 31 2438 30C2488.7 29 2539.3 25 2590.2 24.5C2641 24 2692 27 2742.8 27.3C2793.7 27.7 2844.3 25.3 2895.2 23.8C2946 22.3 2997 21.7 3047.8 23.3C3098.7 25 3149.3 29 3174.7 31L3200 33L3200 0L3174.7 0C3149.3 0 3098.7 0 3047.8 0C2997 0 2946 0 2895.2 0C2844.3 0 2793.7 0 2742.8 0C2692 0 2641 0 2590.2 0C2539.3 0 2488.7 0 2438 0C2387.3 0 2336.7 0 2285.8 0C2235 0 2184 0 2133.2 0C2082.3 0 2031.7 0 1981 0C1930.3 0 1879.7 0 1828.8 0C1778 0 1727 0 1676.2 0C1625.3 0 1574.7 0 1523.8 0C1473 0 1422 0 1371.2 0C1320.3 0 1269.7 0 1219 0C1168.3 0 1117.7 0 1066.8 0C1016 0 965 0 914.2 0C863.3 0 812.7 0 762 0C711.3 0 660.7 0 609.8 0C559 0 508 0 457.2 0C406.3 0 355.7 0 304.8 0C254 0 203 0 152.2 0C101.3 0 50.7 0 25.3 0L0 0Z" fill="#00b8ef"></path><path d="M0 4L25.3 4.5C50.7 5 101.3 6 152.2 5.8C203 5.7 254 4.3 304.8 5.5C355.7 6.7 406.3 10.3 457.2 12C508 13.7 559 13.3 609.8 15.2C660.7 17 711.3 21 762 20.8C812.7 20.7 863.3 16.3 914.2 15.8C965 15.3 1016 18.7 1066.8 17.5C1117.7 16.3 1168.3 10.7 1219 10C1269.7 9.3 1320.3 13.7 1371.2 15.3C1422 17 1473 16 1523.8 13.3C1574.7 10.7 1625.3 6.3 1676.2 5.5C1727 4.7 1778 7.3 1828.8 11C1879.7 14.7 1930.3 19.3 1981 18.5C2031.7 17.7 2082.3 11.3 2133.2 8.8C2184 6.3 2235 7.7 2285.8 8.3C2336.7 9 2387.3 9 2438 12C2488.7 15 2539.3 21 2590.2 20C2641 19 2692 11 2742.8 8.8C2793.7 6.7 2844.3 10.3 2895.2 10C2946 9.7 2997 5.3 3047.8 7.5C3098.7 9.7 3149.3 18.3 3174.7 22.7L3200 27L3200 0L3174.7 0C3149.3 0 3098.7 0 3047.8 0C2997 0 2946 0 2895.2 0C2844.3 0 2793.7 0 2742.8 0C2692 0 2641 0 2590.2 0C2539.3 0 2488.7 0 2438 0C2387.3 0 2336.7 0 2285.8 0C2235 0 2184 0 2133.2 0C2082.3 0 2031.7 0 1981 0C1930.3 0 1879.7 0 1828.8 0C1778 0 1727 0 1676.2 0C1625.3 0 1574.7 0 1523.8 0C1473 0 1422 0 1371.2 0C1320.3 0 1269.7 0 1219 0C1168.3 0 1117.7 0 1066.8 0C1016 0 965 0 914.2 0C863.3 0 812.7 0 762 0C711.3 0 660.7 0 609.8 0C559 0 508 0 457.2 0C406.3 0 355.7 0 304.8 0C254 0 203 0 152.2 0C101.3 0 50.7 0 25.3 0L0 0Z" fill="#4dd7fa"></path></svg>