<svg id="visual" viewBox="0 0 3200 300" width="3200" height="300" xmlns="http://www.w3.org/2000/svg" xmlns:xlink="http://www.w3.org/1999/xlink" version="1.1"><rect x="0" y="0" width="3200" height="300" fill="#000000"></rect><path d="M0 255L25.3 246.5C50.7 238 101.3 221 152.2 212.8C203 204.7 254 205.3 304.8 202.5C355.7 199.7 406.3 193.3 457.2 199.7C508 206 559 225 609.8 229.7C660.7 234.3 711.3 224.7 762 216.2C812.7 207.7 863.3 200.3 914.2 196.7C965 193 1016 193 1066.8 199.8C1117.7 206.7 1168.3 220.3 1219 220.8C1269.7 221.3 1320.3 208.7 1371.2 206.3C1422 204 1473 212 1523.8 222.2C1574.7 232.3 1625.3 244.7 1676.2 239.3C1727 234 1778 211 1828.8 202.2C1879.7 193.3 1930.3 198.7 1981 199C2031.7 199.3 2082.3 194.7 2133.2 201.2C2184 207.7 2235 225.3 2285.8 234.7C2336.7 244 2387.3 245 2438 246.8C2488.7 248.7 2539.3 251.3 2590.2 242.8C2641 234.3 2692 214.7 2742.8 211.7C2793.7 208.7 2844.3 222.3 2895.2 227.3C2946 232.3 2997 228.7 3047.8 230.8C3098.7 233 3149.3 241 3174.7 245L3200 249L3200 301L3174.7 301C3149.3 301 3098.7 301 3047.8 301C2997 301 2946 301 2895.2 301C2844.3 301 2793.7 301 2742.8 301C2692 301 2641 301 2590.2 301C2539.3 301 2488.7 301 2438 301C2387.3 301 2336.7 301 2285.8 301C2235 301 2184 301 2133.2 301C2082.3 301 2031.7 301 1981 301C1930.3 301 1879.7 301 1828.8 301C1778 301 1727 301 1676.2 301C1625.3 301 1574.7 301 1523.8 301C1473 301 1422 301 1371.2 301C1320.3 301 1269.7 301 1219 301C1168.3 301 1117.7 301 1066.8 301C1016 301 965 301 914.2 301C863.3 301 812.7 301 762 301C711.3 301 660.7 301 609.8 301C559 301 508 301 457.2 301C406.3 301 355.7 301 304.8 301C254 301 203 301 152.2 301C101.3 301 50.7 301 25.3 301L0 301Z" fill="#000c7d"></path><path d="M0 249L25.3 250.8C50.7 252.7 101.3 256.3 152.2 258C203 259.7 254 259.3 304.8 254.2C355.7 249 406.3 239 457.2 235.8C508 232.7 559 236.3 609.8 233.5C660.7 230.7 711.3 221.3 762 216.8C812.7 212.3 863.3 212.7 914.2 221.5C965 230.3 1016 247.7 1066.8 251.2C1117.7 254.7 1168.3 244.3 1219 234C1269.7 223.7 1320.3 213.3 1371.2 217.8C1422 222.3 1473 241.7 1523.8 241.5C1574.7 241.3 1625.3 221.7 1676.2 212.7C1727 203.7 1778 205.3 1828.8 208.3C1879.7 211.3 1930.3 215.7 1981 221.5C2031.7 227.3 2082.3 234.7 2133.2 237.5C2184 240.3 2235 238.7 2285.8 237.7C2336.7 236.7 2387.3 236.3 2438 238.5C2488.7 240.7 2539.3 245.3 2590.2 243.8C2641 242.3 2692 234.7 2742.8 226.7C2793.7 218.7 2844.3 210.3 2895.2 212.2C2946 214 2997 226 3047.8 231.2C3098.7 236.3 3149.3 234.7 3174.7 233.8L3200 233L3200 301L3174.7 301C3149.3 301 3098.7 301 3047.8 301C2997 301 2946 301 2895.2 301C2844.3 301 2793.7 301 2742.8 301C2692 301 2641 301 2590.2 301C2539.3 301 2488.7 301 2438 301C2387.3 301 2336.7 301 2285.8 301C2235 301 2184 301 2133.2 301C2082.3 301 2031.7 301 1981 301C1930.3 301 1879.7 301 1828.8 301C1778 301 1727 301 1676.2 301C1625.3 301 1574.7 301 1523.8 301C1473 301 1422 301 1371.2 301C1320.3 301 1269.7 301 1219 301C1168.3 301 1117.7 301 1066.8 301C1016 301 965 301 914.2 301C863.3 301 812.7 301 762 301C711.3 301 660.7 301 609.8 301C559 301 508 301 457.2 301C406.3 301 355.7 301 304.8 301C254 301 203 301 152.2 301C101.3 301 50.7 301 25.3 301L0 301Z" fill="#00349c"></path><path d="M0 244L25.3 247.2C50.7 250.3 101.3 256.7 152.2 253.8C203 251 254 239 304.8 235C355.7 231 406.3 235 457.2 234C508 233 559 227 609.8 225.3C660.7 223.7 711.3 226.3 762 231.5C812.7 236.7 863.3 244.3 914.2 245C965 245.7 1016 239.3 1066.8 242.5C1117.7 245.7 1168.3 258.3 1219 261.7C1269.7 265 1320.3 259 1371.2 254C1422 249 1473 245 1523.8 247.2C1574.7 249.3 1625.3 257.7 1676.2 256.5C1727 255.3 1778 244.7 1828.8 244.8C1879.7 245 1930.3 256 1981 260.7C2031.7 265.3 2082.3 263.7 2133.2 259.2C2184 254.7 2235 247.3 2285.8 246.3C2336.7 245.3 2387.3 250.7 2438 255.3C2488.7 260 2539.3 264 2590.2 262.8C2641 261.7 2692 255.3 2742.8 247.5C2793.7 239.7 2844.3 230.3 2895.2 229.5C2946 228.7 2997 236.3 3047.8 238.3C3098.7 240.3 3149.3 236.7 3174.7 234.8L3200 233L3200 301L3174.7 301C3149.3 301 3098.7 301 3047.8 301C2997 301 2946 301 2895.2 301C2844.3 301 2793.7 301 2742.8 301C2692 301 2641 301 2590.2 301C2539.3 301 2488.7 301 2438 301C2387.3 301 2336.7 301 2285.8 301C2235 301 2184 301 2133.2 301C2082.3 301 2031.7 301 1981 301C1930.3 301 1879.7 301 1828.8 301C1778 301 1727 301 1676.2 301C1625.3 301 1574.7 301 1523.8 301C1473 301 1422 301 1371.2 301C1320.3 301 1269.7 301 1219 301C1168.3 301 1117.7 301 1066.8 301C1016 301 965 301 914.2 301C863.3 301 812.7 301 762 301C711.3 301 660.7 301 609.8 301C559 301 508 301 457.2 301C406.3 301 355.7 301 304.8 301C254 301 203 301 152.2 301C101.3 301 50.7 301 25.3 301L0 301Z" fill="#0056b7"></path><path d="M0 251L25.3 252.5C50.7 254 101.3 257 152.2 255.5C203 254 254 248 304.8 250.7C355.7 253.3 406.3 264.7 457.2 263C508 261.3 559 246.7 609.8 247C660.7 247.3 711.3 262.7 762 267.7C812.7 272.7 863.3 267.3 914.2 260C965 252.7 1016 243.3 1066.8 238.8C1117.7 234.3 1168.3 234.7 1219 236.8C1269.7 239 1320.3 243 1371.2 243.5C1422 244 1473 241 1523.8 241.8C1574.7 242.7 1625.3 247.3 1676.2 250.3C1727 253.3 1778 254.7 1828.8 255C1879.7 255.3 1930.3 254.7 1981 254.3C2031.7 254 2082.3 254 2133.2 255.5C2184 257 2235 260 2285.8 262C2336.7 264 2387.3 265 2438 262.3C2488.7 259.7 2539.3 253.3 2590.2 250.8C2641 248.3 2692 249.7 2742.8 254.3C2793.7 259 2844.3 267 2895.2 268.7C2946 270.3 2997 265.7 3047.8 259.3C3098.7 253 3149.3 245 3174.7 241L3200 237L3200 301L3174.7 301C3149.3 301 3098.7 301 3047.8 301C2997 301 2946 301 2895.2 301C2844.3 301 2793.7 301 2742.8 301C2692 301 2641 301 2590.2 301C2539.3 301 2488.7 301 2438 301C2387.3 301 2336.7 301 2285.8 301C2235 301 2184 301 2133.2 301C2082.3 301 2031.7 301 1981 301C1930.3 301 1879.7 301 1828.8 301C1778 301 1727 301 1676.2 301C1625.3 301 1574.7 301 1523.8 301C1473 301 1422 301 1371.2 301C1320.3 301 1269.7 301 1219 301C1168.3 301 1117.7 301 1066.8 301C1016 301 965 301 914.2 301C863.3 301 812.7 301 762 301C711.3 301 660.7 301 609.8 301C559 301 508 301 457.2 301C406.3 301 355.7 301 304.8 301C254 301 203 301 152.2 301C101.3 301 50.7 301 25.3 301L0 301Z" fill="#0078ce"></path><path d="M0 250L25.3 254.5C50.7 259 101.3 268 152.2 272.2C203 276.3 254 275.7 304.8 270.8C355.7 266 406.3 257 457.2 253.7C508 250.3 559 252.7 609.8 255.2C660.7 257.7 711.3 260.3 762 258.5C812.7 256.7 863.3 250.3 914.2 249.7C965 249 1016 254 1066.8 256.7C1117.7 259.3 1168.3 259.7 1219 260.2C1269.7 260.7 1320.3 261.3 1371.2 262.3C1422 263.3 1473 264.7 1523.8 267.5C1574.7 270.3 1625.3 274.7 1676.2 273.5C1727 272.3 1778 265.7 1828.8 266.5C1879.7 267.3 1930.3 275.7 1981 278.5C2031.7 281.3 2082.3 278.7 2133.2 278.5C2184 278.3 2235 280.7 2285.8 275.7C2336.7 270.7 2387.3 258.3 2438 254.8C2488.7 251.3 2539.3 256.7 2590.2 259.2C2641 261.7 2692 261.3 2742.8 262.7C2793.7 264 2844.3 267 2895.2 267C2946 267 2997 264 3047.8 266.2C3098.7 268.3 3149.3 275.7 3174.7 279.3L3200 283L3200 301L3174.7 301C3149.3 301 3098.7 301 3047.8 301C2997 301 2946 301 2895.2 301C2844.3 301 2793.7 301 2742.8 301C2692 301 2641 301 2590.2 301C2539.3 301 2488.7 301 2438 301C2387.3 301 2336.7 301 2285.8 301C2235 301 2184 301 2133.2 301C2082.3 301 2031.7 301 1981 301C1930.3 301 1879.7 301 1828.8 301C1778 301 1727 301 1676.2 301C1625.3 301 1574.7 301 1523.8 301C1473 301 1422 301 1371.2 301C1320.3 301 1269.7 301 1219 301C1168.3 301 1117.7 301 1066.8 301C1016 301 965 301 914.2 301C863.3 301 812.7 301 762 301C711.3 301 660.7 301 609.8 301C559 301 508 301 457.2 301C406.3 301 355.7 301 304.8 301C254 301 203 301 152.2 301C101.3 301 50.7 301 25.3 301L0 301Z" fill="#0099e2"></path><path d="M0 273L25.3 271.7C50.7 270.3 101.3 267.7 152.2 265C203 262.3 254 259.7 304.8 261.7C355.7 263.7 406.3 270.3 457.2 275C508 279.7 559 282.3 609.8 280.5C660.7 278.7 711.3 272.3 762 267.8C812.7 263.3 863.3 260.7 914.2 261.3C965 262 1016 266 1066.8 265.8C1117.7 265.7 1168.3 261.3 1219 264.8C1269.7 268.3 1320.3 279.7 1371.2 282.7C1422 285.7 1473 280.3 1523.8 274.7C1574.7 269 1625.3 263 1676.2 262.3C1727 261.7 1778 266.3 1828.8 268C1879.7 269.7 1930.3 268.3 1981 270.8C2031.7 273.3 2082.3 279.7 2133.2 280.3C2184 281 2235 276 2285.8 272.5C2336.7 269 2387.3 267 2438 268C2488.7 269 2539.3 273 2590.2 273.5C2641 274 2692 271 2742.8 270.7C2793.7 270.3 2844.3 272.7 2895.2 274.2C2946 275.7 2997 276.3 3047.8 274.7C3098.7 273 3149.3 269 3174.7 267L3200 265L3200 301L3174.7 301C3149.3 301 3098.7 301 3047.8 301C2997 301 2946 301 2895.2 301C2844.3 301 2793.7 301 2742.8 301C2692 301 2641 301 2590.2 301C2539.3 301 2488.7 301 2438 301C2387.3 301 2336.7 301 2285.8 301C2235 301 2184 301 2133.2 301C2082.3 301 2031.7 301 1981 301C1930.3 301 1879.7 301 1828.8 301C1778 301 1727 301 1676.2 301C1625.3 301 1574.7 301 1523.8 301C1473 301 1422 301 1371.2 301C1320.3 301 1269.7 301 1219 301C1168.3 301 1117.7 301 1066.8 301C1016 301 965 301 914.2 301C863.3 301 812.7 301 762 301C711.3 301 660.7 301 609.8 301C559 301 508 301 457.2 301C406.3 301 355.7 301 304.8 301C254 301 203 301 152.2 301C101.3 301 50.7 301 25.3 301L0 301Z" fill="#00b8ef"></path><path d="M0 294L25.3 293.5C50.7 293 101.3 292 152.2 292.2C203 292.3 254 293.7 304.8 292.5C355.7 291.3 406.3 287.7 457.2 286C508 284.3 559 284.7 609.8 282.8C660.7 281 711.3 277 762 277.2C812.7 277.3 863.3 281.7 914.2 282.2C965 282.7 1016 279.3 1066.8 280.5C1117.7 281.7 1168.3 287.3 1219 288C1269.7 288.7 1320.3 284.3 1371.2 282.7C1422 281 1473 282 1523.8 284.7C1574.7 287.3 1625.3 291.7 1676.2 292.5C1727 293.3 1778 290.7 1828.8 287C1879.7 283.3 1930.3 278.7 1981 279.5C2031.7 280.3 2082.3 286.7 2133.2 289.2C2184 291.7 2235 290.3 2285.8 289.7C2336.7 289 2387.3 289 2438 286C2488.7 283 2539.3 277 2590.2 278C2641 279 2692 287 2742.8 289.2C2793.7 291.3 2844.3 287.7 2895.2 288C2946 288.3 2997 292.7 3047.8 290.5C3098.7 288.3 3149.3 279.7 3174.7 275.3L3200 271L3200 301L3174.7 301C3149.3 301 3098.7 301 3047.8 301C2997 301 2946 301 2895.2 301C2844.3 301 2793.7 301 2742.8 301C2692 301 2641 301 2590.2 301C2539.3 301 2488.7 301 2438 301C2387.3 301 2336.7 301 2285.8 301C2235 301 2184 301 2133.2 301C2082.3 301 2031.7 301 1981 301C1930.3 301 1879.7 301 1828.8 301C1778 301 1727 301 1676.2 301C1625.3 301 1574.7 301 1523.8 301C1473 301 1422 301 1371.2 301C1320.3 301 1269.7 301 1219 301C1168.3 301 1117.7 301 1066.8 301C1016 301 965 301 914.2 301C863.3 301 812.7 301 762 301C711.3 301 660.7 301 609.8 301C559 301 508 301 457.2 301C406.3 301 355.7 301 304.8 301C254 301 203 301 152.2 301C101.3 301 50.7 301 25.3 301L0 301Z" fill="#4dd7fa"></path></svg>